# AST/ASF file generated using VICON BodyLanguage
# -----------------------------------------------
:version 1.10
:name VICON
:units
  mass 1.0
  length 0.45
  angle deg
:documentation
   .ast/.asf automatically generated from VICON data using
   VICON BodyBuilder and BodyLanguage model FoxedUp or BRILLIANT.MOD
:root
   order TX TY TZ RX RY RZ
   axis XYZ
   position 0 0 0  
   orientation 0 0 0 
:bonedata
  begin
     id 1 
     name lhipjoint
     direction 0.710188 -0.616876 0.339259 
     length 2.5669 
     axis 0 0 0  XYZ
  end
  begin
     id 2 
     name lfemur
     direction 0.34202 -0.939693 0  
     length 7.12796  
     axis 0 0 20  XYZ
    dof rx ry rz
    limits (-160.0 20.0)
           (-70.0 70.0)
           (-60.0 70.0)
  end
  begin
     id 3 
     name ltibia
     direction 0.34202 -0.939693 0   
     length 7.58108   
     axis 0 0 20   XYZ
    dof rx
    limits (-10.0 170.0)
  end
  begin
     id 4 
     name lfoot
     direction 0.0669471 -0.183936 0.980656   
     length 2.17365   
     axis -90 7.62852e-016 20   XYZ
    dof rx rz
    limits (-45.0 90.0)
           (-70.0 20.0)
  end
  begin
     id 5 
     name ltoes
     direction 1.53508e-011 -4.21705e-011 1   
     length 1.09427   
     axis -90 7.62852e-016 20   XYZ
    dof rx
    limits (-90.0 20.0)
  end
  begin
     id 6 
     name rhipjoint
     direction -0.700191 -0.625589 0.34405   
     length 2.53115  
     axis 0 0 0  XYZ 
  end
  begin
     id 7 
     name rfemur
     direction -0.34202 -0.939693 0   
     length 7.33006   
     axis 0 0 -20   XYZ
    dof rx ry rz
    limits (-160.0 20.0)
           (-70.0 70.0)
           (-70.0 60.0)
  end
  begin
     id 8 
     name rtibia
     direction -0.34202 -0.939693 0   
     length 7.64926   
     axis 0 0 -20   XYZ
    dof rx
    limits (-10.0 170.0)
 end
 begin
     id 9 
     name rfoot
     direction -0.0688927 -0.189281 0.979503   
     length 2.20493  
     axis -90 -7.62852e-016 -20   XYZ
    dof rx rz
    limits (-45.0 90.0)
           (-20.0 70.0)
  end
  begin
     id 10 
     name rtoes
     direction -1.53567e-011 -4.21933e-011 1   
     length 1.10919   
     axis -90 -7.62852e-016 -20   XYZ
    dof rx
    limits (-90.0 20.0)
  end
  begin
     id 11 
     name lowerback
     direction -0.0167868 0.989873 -0.140959   
     length 2.14596   
     axis 0 0 0   XYZ
    dof rx ry rz
    limits (-20.0 45.0)
           (-30.0 30.0)
           (-30.0 30.0)
  end
  begin
     id 12 
     name upperback
     direction 0.0129109 0.998033 0.0613525   
     length 2.10457   
     axis 0 0 0   XYZ
    dof rx ry rz
    limits (-20.0 45.0)
           (-30.0 30.0)
           (-30.0 30.0)
  end
  begin
     id 13 
     name thorax
     direction 0.0177047 0.991119 0.131797   
     length 2.17652   
     axis 0 0 0   XYZ
    dof rx ry rz
    limits (-20.0 45.0)
           (-30.0 30.0)
           (-30.0 30.0)
  end
  begin
     id 14 
     name lowerneck
     direction -0.0336893 0.997548 0.0613464   
     length 1.8912   
     axis 0 0 0   XYZ
    dof rx ry rz
    limits (-20.0 45.0)
           (-30.0 30.0)
           (-30.0 30.0)
  end
  begin
     id 15 
     name upperneck
     direction 0.0435909 0.997179 -0.0611028   
     length 1.8829   
     axis 0 0 0   XYZ
    dof rx ry rz
    limits (-20.0 45.0)
           (-30.0 30.0)
           (-30.0 30.0)
  end
  begin
     id 16
     name head
     direction 0.0175076 0.999444 -0.0283782  
     length 1.93197  
     axis 0 0 0   XYZ
    dof rx ry rz
    limits (-20.0 45.0)
           (-30.0 30.0)
           (-30.0 30.0)
  end
  begin
     id 17 
     name lclavicle
     direction 0.919164 0.389875 0.0559876  
     length 3.60004  
     axis 0 0 0   XYZ
    dof ry rz
    limits (-20.0 10.0)
           (0.0 20.0)
  end
  begin
     id 18 
     name lhumerus
     direction 1 -4.48958e-011 6.89191e-027   
     length 5.43301   
     axis 180 -30 -90   XYZ
    dof rx ry rz
    limits (-60.0 90.0)
           (-90.0 90.0)
           (-90.0 90.0)
  end
  begin
     id 19
     name lradius
     direction 1 -4.4897e-011 3.24727e-027   
     length 3.15936   
     axis 180 -30 -90   XYZ
    dof rx
    limits (-10.0 170.0)
  end
  begin
     id 20
     name lwrist
     direction 1 -4.4897e-011 9.00228e-027   
     length 1.57968   
     axis -6.29373e-015 90 90   XYZ
    dof ry
    limits (-180.0 0.0)
 end
  begin
     id 21 
     name lhand
     direction 1 -4.48968e-011 1.80042e-026   
     length 0.712827   
     axis -1.14882e-014 90 90   XYZ
    dof rx rz
    limits (-90.0 90.0)
           (-45.0 45.0)
  end
  begin
     id 22 
     name lfingers
     direction 1 -4.49019e-011 3.60267e-026   
     length 0.574699   
     axis -2.29769e-014 90 90   XYZ
    dof rx
    limits (0.0 90.0)
  end
  begin
     id 23
     name lthumb
     direction 0.707107 -6.3498e-011 0.707107   
     length 0.825157   
     axis -90 45 5.37419e-014   XYZ
    dof rx rz
    limits (-45.0 45.0)
           (-45.0 45.0)
  end
  begin
     id 24 
     name rclavicle
     direction -0.890334 0.455305 -0.00132111   
     length 3.51494  
     axis 0 0 0   XYZ 
    dof ry rz
    limits (-10.0 20.0)
           (-20.0 0.0)
  end
  begin
     id 25 
     name rhumerus
     direction -1 -4.48967e-011 5.07175e-028  
     length 5.34194   
     axis 180 30 90   XYZ
    dof rx ry rz
    limits (-90.0 60.0)
           (-90.0 90.0)
           (-90.0 90.0)
  end
  begin
     id 26 
     name rradius
     direction -1 -4.48955e-011 3.30467e-027   
     length 3.19351   
     axis 180 30 90   XYZ
    dof rx
    limits (-10.0 170.0)
  end
  begin
     id 27 
     name rwrist
     direction -1 -4.48968e-011 9.00208e-027   
     length 1.59676   
     axis -6.29373e-015 -90 -90   XYZ
    dof ry
    limits (-180.0 0.0)
  end
  begin
     id 28
     name rhand
     direction -1 -4.49e-011 1.80099e-026   
     length 0.743862   
     axis -1.14882e-014 -90 -90   XYZ
    dof rx rz
    limits (-90.0 90.0)
           (-45.0 45.0)
  end
  begin
     id 29
     name rfingers
     direction -1 -4.49009e-011 3.6023e-026   
     length 0.599721   
     axis -2.29769e-014 -90 -90   XYZ
    dof rx
    limits (0.0 90.0)
  end
  begin
     id 30
     name rthumb
     direction -0.707107 -6.35025e-011 0.707107   
     length 0.861083   
     axis -90 -45 -5.37419e-014   XYZ
    dof rx rz
    limits (-45.0 45.0)
           (-45.0 45.0)
  end
:hierarchy
  begin
    root lhipjoint rhipjoint lowerback
    lhipjoint lfemur
    lfemur ltibia
    ltibia lfoot
    lfoot ltoes
    rhipjoint rfemur
    rfemur rtibia
    rtibia rfoot
    rfoot rtoes
    lowerback upperback
    upperback thorax
    thorax lowerneck lclavicle rclavicle
    lowerneck upperneck
    upperneck head
    lclavicle lhumerus
    lhumerus lradius
    lradius lwrist
    lwrist lhand lthumb
    lhand lfingers
    rclavicle rhumerus
    rhumerus rradius
    rradius rwrist
    rwrist rhand rthumb
    rhand rfingers
  end

#!OML:ASF H:\Martial Arts Walks\Project 1\Capture day 1\Session 1\male.ASF
:FULLY-SPECIFIED
:DEGREES
494
root -3.43114 13.8922 -16.7441 1.85292 25.3126 3.04453
lowerback 12.3236 1.6284 -7.28496
upperback -0.723088 1.09277 -0.0082697
thorax -7.8608 0.835133 3.89934
lowerneck 0.543245 -9.96807 -10.3805
upperneck 5.99824 -13.7464 9.12196
head 3.04502 -6.86553 3.90745
rclavicle -7.59171e-014 -4.17448e-015
rhumerus -7.64102 16.1931 -58.1924
rradius 70.6033
rwrist 5.00785
rhand -8.5058 -31.5375
rfingers 7.12502
rthumb 17.4221 -60.7767
lclavicle -7.59171e-014 -4.17448e-015
lhumerus -48.3633 -31.7721 103.865
lradius 101.788
lwrist 43.0597
lhand -17.4597 19.4324
lfingers 7.12502
lthumb 8.79172 49.2293
rfemur -60.3583 -20.2118 10.6717
rtibia 73.3787
rfoot -10.4673 11.9141
rtoes 2.73906
lfemur 15.513 3.70528 -5.27101
ltibia 37.3568
lfoot -29.4151 34.5507
ltoes -24.9029
495
root -3.43285 13.8887 -16.7405 1.88497 25.2762 3.07604
lowerback 12.2961 1.62618 -7.37444
upperback -0.711182 1.08031 0.00285436
thorax -7.83317 0.831844 3.96471
lowerneck 0.449738 -9.95554 -10.4142
upperneck 6.10197 -13.7289 9.14636
head 3.09355 -6.85404 3.91306
rclavicle 6.26762e-014 -3.47873e-015
rhumerus -7.71354 16.1562 -58.2509
rradius 70.7037
rwrist 5.06654
rhand -8.67986 -31.4955
rfingers 7.12502
rthumb 17.2546 -60.7495
lclavicle 6.26762e-014 -3.47873e-015
lhumerus -48.3199 -31.7592 103.793
lradius 101.73
lwrist 43.1424
lhand -17.0272 18.8836
lfingers 7.12502
lthumb 9.20909 48.6625
rfemur -60.4175 -20.1509 10.6481
rtibia 73.4428
rfoot -10.4958 11.8689
rtoes 2.70346
lfemur 15.4712 3.80058 -5.26611
ltibia 37.437
lfoot -29.4513 34.5647
ltoes -24.944
496
root -3.43628 13.8841 -16.7379 1.90359 25.2704 3.1224
lowerback 12.3619 1.64079 -7.47475
upperback -0.712092 1.07948 0.00765161
thorax -7.87427 0.837157 4.02599
lowerneck 0.61199 -9.97248 -10.3882
upperneck 5.95863 -13.7564 9.1315
head 3.02417 -6.87234 3.91551
rclavicle 1.11506e-015 -1.54058e-015
rhumerus -7.83067 16.0981 -58.2938
rradius 70.8343
rwrist 5.07248
rhand -8.78716 -31.5733
rfingers 7.12502
rthumb 17.1513 -60.8363
lclavicle 1.11506e-015 -1.54058e-015
lhumerus -48.1367 -31.9721 103.768
lradius 101.586
lwrist 43.3248
lhand -17.5195 19.3483
lfingers 7.12502
lthumb 8.73403 49.1476
rfemur -60.4568 -20.0972 10.5971
rtibia 73.5173
rfoot -10.5154 11.8118
rtoes 2.64711
lfemur 15.4404 3.8666 -5.26013
ltibia 37.4978
lfoot -29.3862 34.5755
ltoes -25.0506
497
root -3.43924 13.881 -16.7355 1.9557 25.2539 3.17403
lowerback 12.3524 1.652 -7.57707
upperback -0.68655 1.08207 0.0191701
thorax -7.8443 0.841228 4.09606
lowerneck 0.639498 -9.98603 -10.4051
upperneck 5.88724 -13.7747 9.16193
head 3.00344 -6.88212 3.92901
rclavicle 2.7951e-014 -3.72721e-015
rhumerus -7.88006 16.0404 -58.299
rradius 70.9735
rwrist 5.0259
rhand -8.94743 -31.6759
rfingers 7.12502
rthumb 16.997 -60.9523
lclavicle 2.7951e-014 -3.72721e-015
lhumerus -47.9721 -32.1194 103.722
lradius 101.478
lwrist 43.4618
lhand -17.4312 19.959
lfingers 7.12502
lthumb 8.81921 49.7547
rfemur -60.5374 -20.0439 10.5618
rtibia 73.5917
rfoot -10.5389 11.7149
rtoes 2.47448
lfemur 15.3879 3.9416 -5.2669
ltibia 37.5486
lfoot -29.2911 34.6119
ltoes -25.1572
498
root -3.44255 13.8766 -16.7321 2.03207 25.1798 3.24448
lowerback 12.3144 1.69218 -7.69541
upperback -0.658067 1.12249 0.0166127
thorax -7.80006 0.863338 4.15301
lowerneck 0.638205 -10.0104 -10.4156
upperneck 5.83389 -13.8069 9.20086
head 2.99433 -6.89761 3.94111
rclavicle 6.41391e-015 3.2054e-014
rhumerus -7.95692 15.9531 -58.3081
rradius 71.1342
rwrist 4.91985
rhand -9.08948 -31.7239
rfingers 7.12502
rthumb 16.8603 -61.012
lclavicle 6.41391e-015 3.2054e-014
lhumerus -47.7408 -32.3072 103.659
lradius 101.334
lwrist 43.5985
lhand -17.6114 19.5428
lfingers 7.12502
lthumb 8.64536 49.3458
rfemur -60.6511 -19.9281 10.5135
rtibia 73.6731
rfoot -10.5476 11.6235
rtoes 2.52476
lfemur 15.3551 4.05506 -5.2942
ltibia 37.5941
lfoot -29.3177 34.599
ltoes -25.187
499
root -3.44612 13.8734 -16.7317 2.11707 25.1494 3.31838
lowerback 12.3124 1.7077 -7.78712
upperback -0.625319 1.13064 0.00807709
thorax -7.76672 0.868776 4.19441
lowerneck 0.635109 -10.0286 -10.4168
upperneck 5.74784 -13.8297 9.25373
head 2.97516 -6.90811 3.95732
rclavicle -5.8393e-015 3.15571e-015
rhumerus -8.00119 15.9013 -58.3103
rradius 71.3148
rwrist 4.71658
rhand -9.2815 -31.8796
rfingers 7.12502
rthumb 16.6755 -61.1833
lclavicle -5.8393e-015 3.15571e-015
lhumerus -47.4997 -32.4807 103.569
lradius 101.221
lwrist 43.6721
lhand -17.6486 19.7204
lfingers 7.12502
lthumb 8.60943 49.5248
rfemur -60.7568 -19.8552 10.4509
rtibia 73.7395
rfoot -10.5636 11.5559
rtoes 2.58987
lfemur 15.2795 4.11801 -5.34807
ltibia 37.6333
lfoot -29.2754 34.6381
ltoes -25.2557
500
root -3.44927 13.8701 -16.7316 2.20257 25.1279 3.39551
lowerback 12.3238 1.73333 -7.8606
upperback -0.584131 1.15365 -0.00710422
thorax -7.73317 0.880239 4.21539
lowerneck 0.595492 -10.0718 -10.3298
upperneck 5.66518 -13.8772 9.20857
head 2.95243 -6.93018 3.92797
rclavicle 8.09923e-014 1.59028e-015
rhumerus -8.09684 15.7879 -58.308
rradius 71.5261
rwrist 4.47814
rhand -9.42158 -32.042
rfingers 7.12502
rthumb 16.5406 -61.357
lclavicle 8.09923e-014 1.59028e-015
lhumerus -47.2218 -32.7089 103.49
lradius 101.097
lwrist 43.6345
lhand -17.7541 19.8458
lfingers 7.12502
lthumb 8.50767 49.6544
rfemur -60.8569 -19.7955 10.382
rtibia 73.804
rfoot -10.5852 11.469
rtoes 2.59007
lfemur 15.1927 4.16167 -5.41733
ltibia 37.6891
lfoot -29.1568 34.7459
ltoes -25.3303
